<svg width="3126" height="3126" viewBox="0 0 3126 3126" fill="none" xmlns="http://www.w3.org/2000/svg">
<path d="M2136.62 1181.04L1781.54 1082.9C1670.85 1052.31 1556.32 1117.24 1525.73 1227.92L1388.82 1723.3C1358.22 1833.99 1423.15 1948.52 1533.84 1979.11L1888.92 2077.25C1999.6 2107.84 2114.13 2042.91 2144.72 1932.22L2281.64 1436.85C2312.23 1326.16 2247.3 1211.63 2136.62 1181.04Z" fill="white" stroke="#814795" stroke-width="18" stroke-miterlimit="10"/>
<path d="M1783.19 1577.19L1863.49 1599.38L1889.5 1662.47L1916.43 1719.7L1965.34 1834.22L1877.18 1809.85L1843.18 1732.34L1827.15 1687.51L1783.19 1577.19ZM2043.99 1575.99C2030.52 1624.72 2009.83 1663.63 1981.9 1692.71C1954.13 1721.83 1921.89 1741.02 1885.19 1750.29C1848.68 1759.46 1810.71 1758.6 1771.29 1747.7C1731.58 1736.73 1698.43 1717.86 1671.85 1691.1C1645.27 1664.33 1627.53 1631.33 1618.65 1592.07C1609.77 1552.82 1612.05 1508.9 1625.48 1460.32C1638.94 1411.58 1659.57 1372.66 1687.34 1343.54C1715.12 1314.42 1747.27 1295.28 1783.78 1286.11C1820.33 1276.79 1858.46 1277.63 1898.18 1288.6C1937.6 1299.5 1970.6 1318.33 1997.18 1345.09C2023.95 1371.75 2041.77 1404.7 2050.65 1443.95C2059.68 1483.24 2057.46 1527.26 2043.99 1575.99ZM1948.2 1549.51C1956.92 1517.95 1959.55 1490.02 1956.09 1465.73C1952.77 1441.48 1944.15 1421.41 1930.22 1405.5C1916.3 1389.6 1897.92 1378.49 1875.08 1372.17C1852.24 1365.86 1830.76 1365.95 1810.65 1372.45C1790.53 1378.95 1772.75 1391.73 1757.31 1410.79C1742 1429.89 1729.99 1455.23 1721.27 1486.79C1712.54 1518.36 1709.84 1546.27 1713.16 1570.51C1716.62 1594.8 1725.32 1614.9 1739.24 1630.81C1753.17 1646.71 1771.55 1657.82 1794.39 1664.13C1817.23 1670.44 1838.7 1670.35 1858.82 1663.85C1878.93 1657.36 1896.64 1644.56 1911.94 1625.46C1927.39 1606.39 1939.47 1581.08 1948.2 1549.51Z" fill="#814795"/>
<path d="M1346.11 1065.96H903.74C788.903 1065.96 695.81 1159.05 695.81 1273.89V1884.03C695.81 1998.87 788.903 2091.96 903.74 2091.96H1346.11C1460.95 2091.96 1554.04 1998.87 1554.04 1884.03V1273.89C1554.04 1159.05 1460.95 1065.96 1346.11 1065.96Z" fill="#814795"/>
<path d="M919.368 1764.76V1261.87H1117.77C1155.75 1261.87 1188.16 1268.67 1215.01 1282.25C1242.02 1295.68 1262.57 1314.75 1276.64 1339.47C1290.89 1364.02 1298.01 1392.91 1298.01 1426.15C1298.01 1459.54 1290.8 1488.27 1276.4 1512.33C1261.99 1536.23 1241.12 1554.57 1213.78 1567.34C1186.61 1580.11 1153.7 1586.49 1115.07 1586.49H982.229V1501.04H1097.88C1118.18 1501.04 1135.04 1498.26 1148.47 1492.69C1161.89 1487.12 1171.88 1478.78 1178.42 1467.64C1185.14 1456.51 1188.49 1442.68 1188.49 1426.15C1188.49 1409.45 1185.14 1395.37 1178.42 1383.91C1171.88 1372.45 1161.81 1363.78 1148.22 1357.88C1134.8 1351.83 1117.85 1348.8 1097.39 1348.8H1025.69V1764.76H919.368ZM1190.95 1535.91L1315.93 1764.76H1198.56L1076.27 1535.91H1190.95Z" fill="white"/>
</svg>
